# xmcd
#
# Track frame offsets:
#	150
#	12562
#	25672
#	37875
#	49642
#	61035
#	71592
#	85500
#	99552
#	111582
#	123752
#	138205
#	157105
#	171475
#	184572
#	208047
#	220657
#	253305
#	264647
#	279050
#	292567
#	305900
#
# Disc length: 4402
#
# Revision: 1
# Processed by: cddbd v1.5.1PL0 Copyright (c) Steve Scherf et al.
# Submitted via: dBpowerAMP V4.0
# Normalized: r0:TDELIM( - )
#
DISCID=33113016
DTITLE=Various Artist - Blues tears
DYEAR=1900
DGENRE=Blues
TTITLE0=B B King - How Blue Can You Get?
TTITLE1=Muddy Waters - I Just Want to Make Love to You
TTITLE2=John Lee Hooker - Boom Boom Boom
TTITLE3=Sonny Boy Williamson - Don't Start to Me Talkin
TTITLE4=Howlin' Wolf - The Red Rooster
TTITLE5=Buddy Guy - First Time I Met the Blues
TTITLE6=Bo Diddley - I'm a Man
TTITLE7=Robert Nighthawk - Sweet Black Angel
TTITLE8=Johnny Shines - Joliet Blues
TTITLE9=Little Walter - My Babe
TTITLE10=Lowell Fulson - Reconsider Baby
TTITLE11=Bobby "Blue" Bland - Stormy Monday blues
TTITLE12=Howlin' Wolf - Smokestack Lightnin'
TTITLE13=Muddy Waters - I'm Your Hoochie Coochie Man
TTITLE14=John Lee Hooker - It Serves You Right To Suffer
TTITLE15=Little Walter - Juke
TTITLE16=Buddy Guy - Stone Crazy
TTITLE17=Johnny Shines - So Glad I Found You
TTITLE18=Sonny Boy Williamson - Help Me
TTITLE19=Bobby "Blue" Bland - I Pity the Fool
TTITLE20=Howlin' Wolf - I Ain't Superstitious
TTITLE21=B B King - The Thrill is Gone
EXTD=
EXTT0=
EXTT1=
EXTT2=
EXTT3=
EXTT4=
EXTT5=
EXTT6=
EXTT7=
EXTT8=
EXTT9=
EXTT10=
EXTT11=
EXTT12=
EXTT13=
EXTT14=
EXTT15=
EXTT16=
EXTT17=
EXTT18=
EXTT19=
EXTT20=
EXTT21=
PLAYORDER=
